<svg width="310" height="310" viewBox="0 0 310 310" fill="none" xmlns="http://www.w3.org/2000/svg">
<circle cx="155" cy="155" r="155" fill="black"/>
<path d="M266.028 153.537V147.944C262.406 147.944 259.881 147.209 258.453 145.739C257.004 144.247 256.28 141.829 256.28 138.484V130.334C256.28 126.733 255.832 123.782 254.938 121.481C254.021 119.18 252.69 117.39 250.942 116.112C249.195 114.833 247.065 113.949 244.55 113.459C242.036 112.947 239.181 112.692 235.985 112.692V121.577C238.499 121.577 240.428 121.928 241.77 122.631C243.112 123.313 244.039 124.368 244.55 125.795C245.04 127.223 245.286 129.045 245.286 131.261V141.744C245.286 143.384 245.562 144.918 246.116 146.346C246.67 147.773 247.683 149.031 249.153 150.117C250.623 151.183 252.722 152.024 255.449 152.642C258.155 153.239 261.681 153.537 266.028 153.537ZM235.985 193.903C239.181 193.903 242.036 193.647 244.55 193.136C247.065 192.646 249.195 191.761 250.942 190.483C252.69 189.205 254.021 187.415 254.938 185.114C255.832 182.813 256.28 179.862 256.28 176.261V168.143C256.28 164.798 257.004 162.39 258.453 160.92C259.881 159.428 262.406 158.683 266.028 158.683V153.089C261.681 153.089 258.155 153.398 255.449 154.016C252.722 154.613 250.623 155.455 249.153 156.541C247.683 157.607 246.67 158.853 246.116 160.281C245.562 161.708 245.286 163.232 245.286 164.851V175.334C245.286 177.55 245.04 179.371 244.55 180.799C244.039 182.227 243.112 183.292 241.77 183.995C240.428 184.698 238.499 185.05 235.985 185.05V193.903ZM266.028 158.683V147.944H255.896V158.683H266.028Z" fill="white"/>
<path d="M37.9723 153.537V147.944C41.5945 147.944 44.1193 147.209 45.5469 145.739C46.9957 144.247 47.7202 141.829 47.7202 138.484V130.334C47.7202 126.733 48.1676 123.782 49.0625 121.481C49.9787 119.18 51.3104 117.39 53.0575 116.112C54.8047 114.833 56.9354 113.949 59.4496 113.459C61.9638 112.947 64.8189 112.692 68.0149 112.692V121.577C65.5007 121.577 63.5724 121.928 62.2301 122.631C60.8878 123.313 59.9609 124.368 59.4496 125.795C58.9595 127.223 58.7145 129.045 58.7145 131.261V141.744C58.7145 143.384 58.4375 144.918 57.8835 146.346C57.3295 147.773 56.3175 149.031 54.8473 150.117C53.3771 151.183 51.2784 152.024 48.5511 152.642C45.8452 153.239 42.3189 153.537 37.9723 153.537ZM68.0149 193.903C64.8189 193.903 61.9638 193.647 59.4496 193.136C56.9354 192.646 54.8047 191.761 53.0575 190.483C51.3104 189.205 49.9787 187.415 49.0625 185.114C48.1676 182.813 47.7202 179.862 47.7202 176.261V168.143C47.7202 164.798 46.9957 162.39 45.5469 160.92C44.1193 159.428 41.5945 158.683 37.9723 158.683V153.089C42.3189 153.089 45.8452 153.398 48.5511 154.016C51.2784 154.613 53.3771 155.455 54.8473 156.541C56.3175 157.607 57.3295 158.853 57.8835 160.281C58.4375 161.708 58.7145 163.232 58.7145 164.851V175.334C58.7145 177.55 58.9595 179.371 59.4496 180.799C59.9609 182.227 60.8878 183.292 62.2301 183.995C63.5724 184.698 65.5007 185.05 68.0149 185.05V193.903ZM37.9723 158.683V147.944H48.1037V158.683H37.9723Z" fill="white"/>
<rect x="99" y="66" width="111" height="177" rx="35" stroke="white" stroke-width="10"/>
<path d="M205.5 131C173 99.4999 152.5 116 103.5 141H205.5V131Z" fill="white" stroke="white"/>
<path d="M103 141H205V209C205 225.569 191.569 239 175 239H133C116.431 239 103 225.569 103 209V141Z" fill="white"/>
</svg>
